<?xml version="1.0" encoding="UTF-8" standalone="no"?>
<svg
   xmlns:dc="http://purl.org/dc/elements/1.1/"
   xmlns:cc="http://creativecommons.org/ns#"
   xmlns:rdf="http://www.w3.org/1999/02/22-rdf-syntax-ns#"
   xmlns:svg="http://www.w3.org/2000/svg"
   xmlns="http://www.w3.org/2000/svg"
   xmlns:sodipodi="http://sodipodi.sourceforge.net/DTD/sodipodi-0.dtd"
   xmlns:inkscape="http://www.inkscape.org/namespaces/inkscape"
   enable-background="new 0 0 64 64"
   height="64px"
   version="1.1"
   viewBox="0 0 64 64"
   width="64px"
   xml:space="preserve"
   id="svg2"
   inkscape:version="0.91 r13725"
   sodipodi:docname="user.svg"><metadata
     id="metadata26"><rdf:RDF><cc:Work
         rdf:about=""><dc:format>image/svg+xml</dc:format><dc:type
           rdf:resource="http://purl.org/dc/dcmitype/StillImage" /><dc:title></dc:title></cc:Work></rdf:RDF></metadata><defs
     id="defs24" /><sodipodi:namedview
     pagecolor="#ffffff"
     bordercolor="#666666"
     borderopacity="1"
     objecttolerance="10"
     gridtolerance="10"
     guidetolerance="10"
     inkscape:pageopacity="0"
     inkscape:pageshadow="2"
     inkscape:window-width="1600"
     inkscape:window-height="876"
     id="namedview22"
     showgrid="false"
     inkscape:zoom="10.429825"
     inkscape:cx="3.3989826"
     inkscape:cy="26.286013"
     inkscape:window-x="0"
     inkscape:window-y="24"
     inkscape:window-maximized="1"
     inkscape:current-layer="g15" /><g
     id="Layer_1"><g
       id="g5" /><g
       id="g15"><g
         id="g17"
         style="stroke:none;stroke-opacity:1;fill:#0e2a28;fill-opacity:1"><path
           id="path19"
           d="m 43.905,45.543 c -3.821,-1.66 -5.217,-4.242 -5.643,-6.469 2.752,-2.215 4.943,-5.756 6.148,-9.573 1.239,-1.579 1.96,-3.226 1.96,-4.62 0,-0.955 -0.347,-1.646 -0.955,-2.158 C 45.213,14.618 39.474,8.11 32.378,8.01 32.322,8.009 32.268,8 32.213,8 32.191,8 32.17,8.004 32.148,8.004 c -7.052,0.039 -12.783,6.41 -13.125,14.409 -0.884,0.528 -1.394,1.305 -1.394,2.469 0,1.641 0.992,3.63 2.663,5.448 1.187,3.327 3.118,6.38 5.5,8.438 -0.354,2.292 -1.699,5.039 -5.697,6.776 -2.159,0.938 -6.105,1.781 -7.808,2.649 4.362,4.769 12.624,7.769 19.589,7.805 l 0.099,0.003 C 31.983,55.999 31.992,56 32,56 39.014,56 47.325,52.99 51.713,48.192 50.01,47.324 46.063,46.481 43.905,45.543 Z M 64,32 A 32,32 0 0 1 32,64 32,32 0 0 1 0,32 32,32 0 0 1 32,0 32,32 0 0 1 64,32 Z"
           style="stroke:none;stroke-opacity:1;fill:#0e2a28;fill-opacity:1" /></g></g></g><g
     id="Layer_2" /></svg>